<?xml version="1.0" encoding="utf-8"?>
<!-- Generator: Adobe Illustrator 15.1.0, SVG Export Plug-In . SVG Version: 6.00 Build 0)  -->
<!DOCTYPE svg PUBLIC "-//W3C//DTD SVG 1.1//EN" "http://www.w3.org/Graphics/SVG/1.1/DTD/svg11.dtd">
<svg version="1.1" id="Layer_1" xmlns="http://www.w3.org/2000/svg" xmlns:xlink="http://www.w3.org/1999/xlink" x="0px" y="0px"
	 width="7875.15px" height="1764.706px" viewBox="0 0 7875.15 1764.706" enable-background="new 0 0 7875.15 1764.706"
	 xml:space="preserve">
<g>
	<path fill="#282627" d="M470.191,224.037c145.902,0,198.277,88.29,197.528,196.032c-0.748,98.016-61.354,176.579-198.277,177.327
		H331.771v180.319c0,25.439,12.72,42.648,27.684,42.648H227.021c14.216,0,26.188-15.712,27.684-38.907V262.944
		c-1.497-23.195-13.468-38.907-27.684-38.907H470.191z M343.743,230.771c-6.734,7.482-11.972,20.202-11.972,35.166v324.725h80.807
		c172.838-2.245,172.089-142.161,172.838-169.845c0-18.705,15.712-190.046-180.32-190.046H343.743z"/>
	<path fill="#282627" d="M873.814,278.251h121.074c-14.284,0-20.406,15.645-13.604,38.091l145.561,465.25
		c7.482,23.126,23.807,38.771,37.411,38.771h-121.074c13.604,0,20.406-14.284,14.284-35.37l-69.379-221.742
		c-2.041-6.122-6.802-10.883-17.005-10.883H843.885c-9.522,0-14.964,4.761-16.324,10.883l-70.06,221.742
		c-5.441,21.086,0.68,35.37,14.284,35.37h-66.659c13.604,0,29.928-15.645,37.411-38.771l145.561-465.25
		c5.442-19.045,2.041-33.33-7.482-36.73C877.895,278.932,875.854,278.251,873.814,278.251z M979.244,536.044l-69.38-222.422
		c-0.68-2.041-1.36-4.082-2.041-6.122c-1.36,2.04-2.041,4.081-2.721,6.122l-69.379,222.422c-1.36,4.761-1.36,9.522,6.802,10.203
		h129.917C981.284,545.566,980.604,540.805,979.244,536.044z"/>
	<path fill="#282627" d="M1096.923,278.251h393.15v74.821c0,0-6.802-65.979-121.754-68.699h-28.568
		c-6.802,6.802-11.563,18.365-11.563,32.649v465.25c0,22.446,11.563,38.091,25.847,38.091h-121.074
		c12.924,0,24.487-14.284,25.167-35.37V313.622c-0.68-12.924-4.761-23.126-10.883-29.249h-28.568
		c-114.953,2.721-121.754,68.699-121.754,68.699V278.251z"/>
	<path fill="#282627" d="M1645.84,820.364h-121.074c13.604,0,24.487-14.284,25.167-35.37V313.622
		c-0.68-21.086-11.563-35.37-25.167-35.37h221.062c132.637,0,180.931,80.263,180.25,178.21
		c-0.68,78.222-43.532,143.521-138.759,157.805c23.126,4.761,26.527,17.685,38.091,37.41l62.578,129.917
		c10.883,23.126,29.248,38.091,43.532,38.091h-121.074c12.924,0,17.685-13.604,8.163-35.37l-64.618-135.358
		c-7.482-14.284-17.685-25.167-27.888-31.289h-105.43v163.926C1620.673,804.719,1632.236,820.364,1645.84,820.364z
		 M1686.651,284.373h-55.095c-6.802,6.802-10.883,18.365-10.883,31.969v295.203h72.781
		c157.124-2.041,157.124-129.236,157.124-154.403C1851.258,440.137,1864.862,284.373,1686.651,284.373z"/>
	<path fill="#282627" d="M2119.942,598.622l-162.566-285c-12.924-21.086-31.969-35.37-44.893-35.37h120.394
		c-13.604,0-16.325,15.645-3.401,38.771l153.043,267.315l156.444-267.995c13.604-22.446,10.884-38.091-2.721-38.091h66.659
		c-12.924,0-32.649,14.284-46.253,35.37l-165.967,284.32v184.332c0,22.446,11.563,38.091,25.167,38.091h-121.074
		c13.604,0,24.487-14.284,25.167-35.37V598.622z"/>
	<path fill="#282627" d="M2741.636,342.189c-14.964-33.329-70.74-59.857-132.638-56.456
		c-102.709,6.802-174.809,135.358-161.205,280.919c13.604,145.561,108.15,255.752,210.179,246.229
		c48.294-4.762,114.953-34.01,143.521-80.263h10.203c-27.208,44.212-86.384,80.263-153.043,86.384
		c-141.479,13.604-267.315-97.268-280.919-246.229c-14.284-148.962,89.105-280.919,230.585-293.843
		c73.46-6.802,142.16,19.726,193.854,67.339c7.481,6.802,12.243,9.523,19.045,8.843l-99.308,8.842
		c8.843-0.68,25.167-9.522,19.726-21.086C2741.636,342.189,2741.636,342.189,2741.636,342.189z"/>
	<path fill="#282627" d="M2880.397,278.251h120.394c-13.604,0-25.167,15.645-25.167,38.771v362.542
		c0,80.262-14.284,140.799-168.688,140.799c107.47,0,98.628-101.349,98.628-137.398V313.622
		C2904.204,292.536,2893.32,278.251,2880.397,278.251z"/>
	<path fill="#282627" d="M3160.639,278.251h121.074c-14.284,0-20.406,15.645-13.604,38.091l145.562,465.25
		c7.481,23.126,23.807,38.771,37.41,38.771h-121.074c13.604,0,20.406-14.284,14.284-35.37l-69.379-221.742
		c-2.041-6.122-6.803-10.883-17.005-10.883H3130.71c-9.522,0-14.964,4.761-16.324,10.883l-70.06,221.742
		c-5.441,21.086,0.68,35.37,14.284,35.37h-66.659c13.604,0,29.929-15.645,37.41-38.771l145.562-465.25
		c5.441-19.045,2.04-33.33-7.482-36.73C3164.72,278.932,3162.679,278.251,3160.639,278.251z M3266.069,536.044l-69.38-222.422
		c-0.68-2.041-1.36-4.082-2.04-6.122c-1.36,2.04-2.041,4.081-2.721,6.122l-69.38,222.422c-1.36,4.761-1.36,9.522,6.802,10.203
		h129.917C3268.109,545.566,3267.429,540.805,3266.069,536.044z"/>
	<path fill="#282627" d="M4001.02,224.037c145.901,0,198.276,88.29,197.528,196.032c-0.748,98.016-61.354,176.579-198.276,177.327
		H3862.6v180.319c0,25.439,12.72,42.648,27.684,42.648H3757.85c14.216,0,26.188-15.712,27.684-38.907V262.944
		c-1.496-23.195-13.468-38.907-27.684-38.907H4001.02z M3874.571,230.771c-6.734,7.482-11.972,20.202-11.972,35.166v324.725h80.808
		c172.837-2.245,172.089-142.161,172.837-169.845c0-18.705,15.713-190.046-180.319-190.046H3874.571z"/>
	<path fill="#282627" d="M4404.643,278.251h121.074c-14.284,0-20.406,15.645-13.604,38.091l145.562,465.25
		c7.481,23.126,23.807,38.771,37.41,38.771H4574.01c13.604,0,20.406-14.284,14.284-35.37l-69.38-221.742
		c-2.04-6.122-6.802-10.883-17.004-10.883h-127.196c-9.522,0-14.964,4.761-16.324,10.883l-70.06,221.742
		c-5.441,21.086,0.68,35.37,14.284,35.37h-66.659c13.604,0,29.929-15.645,37.41-38.771l145.562-465.25
		c5.441-19.045,2.04-33.33-7.482-36.73C4408.724,278.932,4406.683,278.251,4404.643,278.251z M4510.072,536.044l-69.38-222.422
		c-0.68-2.041-1.36-4.082-2.04-6.122c-1.36,2.04-2.041,4.081-2.721,6.122l-69.38,222.422c-1.36,4.761-1.36,9.522,6.802,10.203
		h129.917C4512.112,545.566,4511.433,540.805,4510.072,536.044z"/>
	<path fill="#282627" d="M4788.281,712.213c-1.36,36.73,31.289,98.628,110.871,100.668c78.222,2.041,117.673-57.816,119.714-115.633
		c6.122-159.845-318.329-97.267-285.681-301.324c9.523-59.177,75.502-117.673,163.927-118.354
		c82.983-1.36,132.637,27.888,153.723,75.501c6.122,13.604,19.726,23.127,30.608,25.848l-119.033-0.68
		c33.329-1.36,25.167-27.888,23.807-34.69c-10.203-40.131-42.172-58.497-73.461-59.177c-84.343-2.041-114.952,51.695-107.47,108.15
		c19.726,152.363,304.726,89.785,299.284,286.36c-2.721,91.146-70.06,141.48-199.977,140.8
		c-112.911-0.68-168.007-76.862-182.291-121.754c-6.802-10.883-18.365-19.045-27.888-21.766l116.993,0.68
		C4789.642,680.245,4788.281,703.371,4788.281,712.213z"/>
	<path fill="#282627" d="M5103.213,278.251h393.15v74.821c0,0-6.802-65.979-121.754-68.699h-28.568
		c-6.802,6.802-11.563,18.365-11.563,32.649v465.25c0,22.446,11.563,38.091,25.848,38.091h-121.074
		c12.924,0,24.487-14.284,25.167-35.37V313.622c-0.68-12.924-4.761-23.126-10.883-29.249h-28.568
		c-114.952,2.721-121.754,68.699-121.754,68.699V278.251z"/>
	<path fill="#282627" d="M5556.224,656.438c0-3.401,0-342.816,0-342.816c-0.68-21.086-11.563-35.37-25.167-35.37h121.074
		c-13.604,0-25.167,15.645-25.167,38.091v403.353c0,65.298,52.374,94.547,117.673,94.547c64.618,0,117.673-29.249,117.673-94.547
		V313.622c-1.36-21.086-12.243-35.37-25.167-35.37h121.074c-14.284,0-25.848,15.645-25.848,38.771c0,0,0,346.217,0,349.618
		c-5.441,98.627-87.744,153.723-187.732,153.723C5640.567,820.364,5556.224,759.827,5556.224,656.438z"/>
	<path fill="#282627" d="M6085.406,712.213c-1.36,36.73,31.289,98.628,110.871,100.668c78.222,2.041,117.673-57.816,119.714-115.633
		c6.123-159.845-318.329-97.267-285.681-301.324c9.523-59.177,75.502-117.673,163.927-118.354
		c82.983-1.36,132.637,27.888,153.723,75.501c6.122,13.604,19.726,23.127,30.608,25.848l-119.033-0.68
		c33.329-1.36,25.167-27.888,23.807-34.69c-10.203-40.131-42.172-58.497-73.461-59.177c-84.343-2.041-114.952,51.695-107.47,108.15
		c19.726,152.363,304.726,89.785,299.284,286.36c-2.721,91.146-70.06,141.48-199.977,140.8
		c-112.911-0.68-168.007-76.862-182.291-121.754c-6.802-10.883-18.365-19.045-27.888-21.766l116.993,0.68
		C6086.767,680.245,6085.406,703.371,6085.406,712.213z"/>
	<path fill="#282627" d="M6440.462,278.251h353.699c-13.604,0-31.969,15.645-42.172,38.771l-205.418,465.25
		c-6.122,13.604-6.802,25.167-3.401,31.289h118.354c114.952-2.041,121.754-68.699,121.754-68.699v74.821v0.68H6434.34
		c12.924,0,30.608-14.284,40.812-35.37l207.458-471.372c5.441-12.924,5.441-23.126,2.041-29.249h-123.115
		c-114.952,2.721-121.073,68.699-121.073,68.699V278.251z"/>
	<path fill="#282627" d="M7190.028,278.251c-13.604,0-34.69,14.284-51.695,35.37L6985.29,523.8l178.891,258.473
		c16.324,22.446,38.091,38.091,51.694,38.091h-120.394c12.924,0,14.284-14.284,0.68-35.37L6949.24,572.774l-35.37,48.974v160.525
		c0,22.446,11.563,38.091,25.848,38.091h-121.074c12.924,0,24.487-14.284,25.167-35.37V313.622
		c-0.68-21.086-12.243-35.37-25.167-35.37h121.074c-14.284,0-25.848,15.645-25.848,38.771v282.279l206.098-282.959
		c17.005-22.446,17.005-38.091,2.722-38.091H7190.028z"/>
	<path fill="#282627" d="M7395.443,278.251h121.074c-14.284,0-20.405,15.645-13.604,38.091l145.562,465.25
		c7.481,23.126,23.808,38.771,37.41,38.771h-121.074c13.604,0,20.406-14.284,14.284-35.37l-69.38-221.742
		c-2.04-6.122-6.802-10.883-17.004-10.883h-127.196c-9.522,0-14.964,4.761-16.324,10.883l-70.06,221.742
		c-5.441,21.086,0.68,35.37,14.284,35.37h-66.659c13.604,0,29.929-15.645,37.41-38.771l145.562-465.25
		c5.441-19.045,2.04-33.33-7.482-36.73C7399.524,278.932,7397.483,278.251,7395.443,278.251z M7500.873,536.044l-69.38-222.422
		c-0.68-2.041-1.36-4.082-2.04-6.122c-1.36,2.04-2.041,4.081-2.721,6.122l-69.38,222.422c-1.36,4.761-1.36,9.522,6.803,10.203
		h129.916C7502.913,545.566,7502.233,540.805,7500.873,536.044z"/>
</g>
<g>
	<path fill="#DCAA27" d="M561.127,1177.617c-37.469,8.941-75.789,16.605-113.684,24.695c-7.664,1.703-15.754,2.98-23.418,4.258
		c-4.684,0.852-7.238,2.555-9.367,7.238c-22.992,63.016-48.965,124.754-71.105,187.77c-13.199,36.617-26.398,73.66-43.855,109
		c-0.426,0.852-0.852,1.703-1.277,2.555c-4.258,7.664-4.684,8.09-9.793,5.961c-7.664-2.98-9.793-5.961-7.664-13.199
		c2.555-9.367,5.961-18.309,9.367-27.25c19.16-49.816,38.32-99.633,57.48-149.023c14.477-37.469,22.566-76.641,29.805-115.813
		c1.277-7.238,0.852-7.238-6.387-9.367c-14.051-4.258-26.398-11.496-36.617-22.566c-9.367-10.219-13.625-22.566-14.051-35.766
		c-1.277-26.824,5.535-51.094,25.121-70.68c13.625-13.625,29.805-13.199,43.43,0.426c5.109,5.535,5.109,5.535,10.645,0.852
		c27.676-25.547,53.223-53.223,76.641-82.602c3.406-3.832,5.535-8.941,7.664-13.625c14.051-35.34,27.676-70.68,43.43-105.168
		c3.832-8.941,7.664-18.309,13.625-26.398c5.109-7.238,7.238-8.516,12.348-6.813c5.961,2.129,8.516,6.813,8.516,16.18
		c-2.129,14.477-7.664,30.656-13.625,45.984c-11.922,29.379-28.102,56.203-46.836,81.324c-5.535,7.238-8.09,15.754-11.07,24.27
		c-17.883,47.262-35.34,94.949-52.797,142.637c-3.832,9.793-7.664,19.586-11.07,29.379s-2.98,10.219,7.238,8.516
		c8.516-1.277,16.605-2.555,24.695-4.258c51.52-10.645,103.039-21.715,154.133-34.488c15.754-3.832,31.508-8.09,46.836-12.348
		c3.832-0.852,7.238-0.426,10.219,1.703s2.555,5.109-0.852,6.813c-1.703,0.852-3.406,1.703-5.535,2.129
		C630.104,1161.012,595.615,1169.527,561.127,1177.617z M387.408,1118.434c-0.426-6.387-1.703-7.238-7.238-3.406
		c-11.922,8.941-24.695,17.457-38.32,23.844c-2.555,0.852-3.406,2.555-3.832,5.109c-4.258,24.27,12.348,46.41,37.043,49.391
		c3.832,0.426,5.535-0.852,6.387-5.109c2.555-18.734,5.109-37.895,5.961-56.203C387.408,1126.949,387.408,1122.691,387.408,1118.434
		z M342.275,1121.414c14.902-7.664,26.824-17.457,38.746-28.102c3.406-2.98,2.555-7.238-0.426-13.625
		c-2.555-4.258-5.535-4.258-9.367-2.98c-2.129,0.852-4.258,1.277-6.387,2.555C351.217,1089.906,344.83,1104.383,342.275,1121.414z
		 M452.127,1063.934c3.406-8.516,6.387-17.031,10.219-27.676c-5.109,3.406-7.664,6.387-10.219,9.367
		c-12.773,14.477-25.547,28.527-40.023,40.875c-8.516,8.09-12.773,15.328-11.07,28.102c2.98,22.141-0.852,44.281-2.98,66.848
		c-0.426,3.832-3.832,10.219,0.426,11.496c5.961,1.703,5.961-5.535,7.664-9.367C421.471,1143.555,436.799,1103.957,452.127,1063.934
		z"/>
	<path fill="#DCAA27" d="M704.193,1174.211c0,0,16.605,2.555,49.816-3.832c8.09-1.703,56.629-16.605,85.582-33.637
		c3.406-2.129,6.387,0,7.664,0.426c-58.332,36.191-122.199,53.223-146.895,43.43c-2.555-0.426-3.832,0.426-5.535,2.129
		c-5.109,5.109-11.07,9.367-16.605,13.625c-1.277,0.852-2.129,1.703-3.406,2.129c-11.07,6.813-22.992,0-23.418-13.199
		c0-8.09,2.555-15.328,6.387-22.141c2.129-3.832,2.129-6.387-0.426-10.219c-6.813-10.645-9.793-22.566-9.367-35.34
		c0.426-8.09,3.832-15.328,8.941-21.715c9.793-12.773,22.992-20.438,39.172-22.566c19.16-2.555,34.488,9.793,36.617,28.953
		c1.277,12.348-1.277,23.844-5.961,34.914c-5.109,12.348-11.496,23.418-20.863,32.785c-0.426,0.852-0.852,1.277-1.277,2.129
		C704.619,1172.082,704.619,1172.508,704.193,1174.211z M713.986,1122.266c6.387-30.656-14.477-33.211-14.477-33.211
		c-32.359-2.129-51.945,40.023-35.34,62.164c2.98-4.258,5.961-8.09,8.516-11.496c3.406-4.684,7.238-8.516,12.348-11.922
		c4.684-2.98,9.793-1.703,13.625,3.832c2.98,4.258,2.555,5.109-2.98,9.793s-11.07,9.793-15.754,15.754
		c-3.406,5.109-5.535,4.258,5.535,9.793c4.258,2.129,4.258,2.129,5.535,1.703c0.852-0.426,1.277-1.703,2.129-2.555
		C704.193,1153.773,710.58,1138.445,713.986,1122.266z M681.627,1175.063c-2.555-1.277-4.684-2.555-6.813-3.832
		c-2.129-1.703-3.406-1.277-4.684,0.852c-2.98,5.109-5.109,10.645-6.387,16.18c-0.426,1.277-0.426,2.129,0.426,2.98
		c7.664-2.129,12.773-7.238,17.883-12.773C683.33,1177.191,682.904,1175.914,681.627,1175.063z"/>
	<path fill="#DCAA27" d="M931.134,1245.316c-11.07,7.664-22.566,14.902-34.488,20.863c-34.488,16.605-64.293-2.98-63.016-40.875
		c1.703-45.984,12.773-90.266,30.23-132.418c30.656-74.938,73.234-143.914,116.238-212.039
		c12.348-19.586,24.695-39.172,37.469-58.758c1.703-3.406,5.961-6.813-2.129-8.09c-78.344-14.902-157.113-21.715-236.309-9.367
		c-15.328,2.555-30.656,6.813-45.133,11.922c-10.645,3.406-20.438,8.516-28.527,16.18c-1.703,1.703-4.258,3.406-3.832,4.684
		c1.703,9.793-4.258,6.813-8.516,5.535c-7.664-2.555-10.645-7.664-7.238-13.625c4.258-9.367,12.348-14.051,20.863-18.734
		c24.27-12.348,50.668-18.309,77.492-21.715c58.758-7.664,117.09-4.258,175.422,5.535c20.012,3.406,40.023,7.238,60.461,11.496
		c5.109,0.852,8.09,0,11.07-4.684c9.367-14.477,19.586-28.953,30.656-42.578c2.98-3.406,5.961-6.813,11.07-7.664
		c5.109-0.426,10.219,0.852,13.199,4.684c3.406,4.258-0.426,8.09-2.555,11.496c-8.941,13.199-18.309,26.398-27.25,39.172
		c-2.98,4.258-3.832,6.387,2.555,8.09c59.184,11.496,117.941,24.27,178.828,26.398c35.34,1.277,70.68-0.426,106.02-6.387
		c9.367-1.277,17.883-5.109,27.25-7.664c3.406-1.277,5.961-3.832,8.09-7.238s5.535-5.535,9.367-6.813
		c2.129-0.852,5.109-1.277,6.813,0.852c2.129,2.98-1.703,3.832-2.555,5.961c-14.051,21.715-37.469,23.844-59.609,26.824
		c-70.254,10.645-139.656,0.852-209.059-11.496c-22.992-4.258-45.984-8.941-69.402-13.625c-4.684-0.852-8.09-0.426-11.496,4.258
		c-66.848,100.059-124.754,204.375-170.738,315.93c-11.496,28.102-17.883,58.332-21.289,88.988c-0.426,4.258-0.426,8.516,0,12.773
		c2.129,20.012,15.754,28.102,34.063,20.012c25.973-11.922,47.688-30.23,69.828-47.262c31.508-23.844,63.867-45.559,96.652-66.848
		c5.109-3.406,10.645-5.961,16.18-8.516c3.406-1.277,6.813-2.555,10.645,1.703C1026.509,1172.508,980.099,1211.254,931.134,1245.316
		z"/>
	<path fill="#DCAA27" d="M1112.089,1174.211c0,0,16.605,2.555,49.816-3.832c8.09-1.703,56.629-16.605,85.582-33.637
		c3.406-2.129,6.387,0,7.664,0.426c-58.332,36.191-122.199,53.223-146.895,43.43c-2.555-0.426-3.832,0.426-5.535,2.129
		c-5.109,5.109-11.07,9.367-16.605,13.625c-1.277,0.852-2.129,1.703-3.406,2.129c-11.07,6.813-22.992,0-23.418-13.199
		c0-8.09,2.555-15.328,6.387-22.141c2.129-3.832,2.129-6.387-0.426-10.219c-6.813-10.645-9.793-22.566-9.367-35.34
		c0.426-8.09,3.832-15.328,8.941-21.715c9.793-12.773,22.992-20.438,39.172-22.566c19.16-2.555,34.488,9.793,36.617,28.953
		c1.277,12.348-1.277,23.844-5.961,34.914c-5.109,12.348-11.496,23.418-20.863,32.785c-0.426,0.852-0.852,1.277-1.277,2.129
		C1112.515,1172.082,1112.515,1172.508,1112.089,1174.211z M1121.882,1122.266c6.387-30.656-14.477-33.211-14.477-33.211
		c-32.359-2.129-51.945,40.023-35.34,62.164c2.98-4.258,5.961-8.09,8.516-11.496c3.406-4.684,7.238-8.516,12.348-11.922
		c4.684-2.98,9.793-1.703,13.625,3.832c2.98,4.258,2.555,5.109-2.98,9.793s-11.07,9.793-15.754,15.754
		c-3.406,5.109-5.535,4.258,5.535,9.793c4.258,2.129,4.258,2.129,5.535,1.703c0.852-0.426,1.277-1.703,2.129-2.555
		C1112.089,1153.773,1118.476,1138.445,1121.882,1122.266z M1089.522,1175.063c-2.555-1.277-4.684-2.555-6.813-3.832
		c-2.129-1.703-3.406-1.277-4.684,0.852c-2.98,5.109-5.109,10.645-6.387,16.18c-0.426,1.277-0.426,2.129,0.426,2.98
		c7.664-2.129,12.773-7.238,17.883-12.773C1091.226,1177.191,1090.8,1175.914,1089.522,1175.063z"/>
	<path fill="#DCAA27" d="M1207.037,1499.082c-23.418,43.43-48.539,85.156-83.879,120.496
		c-20.012,20.438-42.152,37.895-68.977,48.113c-40.023,15.754-78.344,11.922-114.109-11.922
		c-17.457-11.922-25.973-29.805-32.785-48.539c-11.07-30.656-10.219-61.738-3.406-93.672c7.664-37.043,26.398-67.699,49.816-96.227
		c40.023-48.113,89.84-83.027,146.043-109.426c39.172-18.309,80.047-29.805,123.477-33.637c15.754-1.277,31.508-0.852,47.262,0.426
		c8.516,0.852,8.516,0.852,11.496-6.813c18.734-43.43,39.172-86.434,63.867-126.883c2.555-4.684,6.387-8.516,6.813-14.051
		c-10.219,5.961-17.883,14.051-26.398,22.141c-17.457,17.883-34.914,36.191-53.223,53.223c-3.406,2.98-7.238,5.535-11.07,7.664
		c-13.625,7.238-28.527-2.129-28.102-17.457c0-12.773,5.535-24.27,11.07-35.34c13.199-25.121,31.082-45.984,54.074-62.164
		c6.387-4.684,13.199-7.664,20.438-9.793c13.199-4.258,25.547-1.703,36.617,6.387c4.258,3.832,6.813,2.98,10.645,0
		c6.387-5.535,12.773-10.219,19.586-14.902c5.109-3.406,19.586-1.703,23.844,2.129c2.129,2.129,0.852,3.832,0,5.109
		c-3.406,4.684-7.238,8.941-10.219,13.625c-16.605,24.27-31.508,49.391-45.133,75.363c-15.754,30.23-30.656,60.887-44.707,91.543
		c-7.664,16.605-6.813,14.902,8.941,17.031c17.031,1.703,33.211,8.09,49.391,14.051c0.426,0,0.852,0.426,1.703,0.852
		c1.277,1.277,3.832,2.129,2.98,4.258c-0.426,2.555-2.98,2.129-4.684,2.129c-8.09-0.852-15.754-1.703-23.418-2.98
		c-13.199-2.129-25.973-4.258-39.172-7.238c-5.535-1.277-8.09,0.426-10.219,5.961c-14.051,33.637-28.527,67.273-43.004,100.91
		C1238.119,1432.66,1224.494,1467.148,1207.037,1499.082z M1207.037,1442.879c18.309-40.875,35.766-82.602,53.648-123.902
		c3.406-8.09,6.813-15.754,10.219-23.844c2.129-5.109,1.277-6.387-4.258-6.813c-8.516-0.852-17.031-0.852-25.973-0.426
		c-43.855,0.852-85.156,13.199-124.754,31.082c-57.906,25.547-109,60.461-149.875,109.852
		c-31.508,38.32-50.668,80.898-51.094,131.566c-0.852,20.012,3.406,40.023,12.348,58.758c6.387,14.051,14.051,27.676,28.102,36.191
		c14.477,8.516,30.23,12.348,47.262,11.922c25.973-1.277,48.965-10.645,69.402-25.973c23.844-17.457,43.43-39.172,60.461-63.441
		C1161.904,1535.699,1185.748,1489.715,1207.037,1442.879z M1349.248,1103.105c-0.852-2.129-2.98-3.406-5.535-3.832
		c-3.406,0-6.387,1.277-9.367,2.555c-12.773,5.535-23.844,13.625-33.637,23.418c-18.309,16.605-33.637,35.34-43.43,57.906
		c-2.129,4.684-4.684,8.941-3.406,15.754c7.238-4.258,11.922-8.941,17.031-13.625c25.973-25.121,48.539-53.648,75.789-77.492
		C1348.396,1106.512,1350.525,1105.66,1349.248,1103.105z"/>
	<path fill="#DCAA27" d="M1419.927,1323.234c-5.961-18.734-3.406-36.617,2.98-54.5c8.09-20.863,19.586-40.023,31.934-59.184
		c6.813-10.645,13.625-21.715,20.438-32.785c4.258-6.813,7.238-14.051,8.09-22.141c0.852-4.258,0.426-7.664-4.258-10.645
		c-5.535-3.832-7.664-11.07-5.961-17.883c2.129-8.516,8.09-13.199,16.18-14.902c6.813-1.277,12.348,1.277,16.605,6.387
		c2.129,1.703,2.129,4.258,1.277,6.813s-1.703,5.109-3.406,6.387c-7.238,6.387-11.922,12.348-2.98,21.289
		c4.258,3.832,2.129,11.07,0.426,16.605c-2.98,10.219-8.09,19.16-13.625,28.102c-16.18,24.695-33.211,48.965-45.984,76.215
		c-6.387,13.625-11.496,27.676-11.496,42.578c-0.426,22.141,11.07,29.805,31.082,20.863c8.09-3.406,15.754-7.238,22.566-13.199
		c1.703-1.703,4.258-2.98,6.387-0.426c2.129,2.129-0.852,3.832-2.129,5.109c-8.516,8.941-29.379,17.883-39.598,17.031
		C1436.106,1344.523,1423.759,1335.156,1419.927,1323.234z"/>
	<path fill="#DCAA27" d="M1639.205,1185.707c-5.109,5.109-9.793,9.793-14.477,14.051c-2.98,3.406-6.813,6.387-11.07,8.516
		c-11.07,5.109-24.695-1.703-24.695-13.625c-0.852-35.34,13.199-64.293,43.855-83.453c12.773-8.09,25.547-6.387,38.32,0.852
		c3.406,2.129,5.961,4.684,10.645,2.98c2.555-0.852,5.109,0.852,7.664,2.129c8.941,4.258,9.793,7.238,5.109,16.18
		c-6.387,11.07-13.625,21.715-18.309,33.637c-5.961,14.477-8.941,28.953-8.516,44.281c0,6.813,1.277,13.199,3.832,19.16
		s6.813,8.516,13.199,8.941c12.773,0,23.844-4.684,34.914-10.219c43.004-20.863,173.719-110.703,188.195-94.523
		c0.426,0.426,0.426,1.277,0.852,2.98c-52.797,6.387-144.766,86.859-193.73,107.723c-24.27,10.219-53.223,4.258-67.699-22.992
		c-4.258-8.09-5.535-17.031-6.387-25.973C1640.482,1193.371,1640.908,1189.965,1639.205,1185.707z M1663.475,1130.355
		c2.129-3.406,0.426-5.535-1.277-8.09c-1.703-2.98-4.684-2.555-6.813-1.277c-3.406,2.129-7.238,3.832-10.219,6.387
		c-16.18,13.625-27.25,30.23-34.914,49.816c-2.555,5.961-4.258,12.773-4.258,22.141c4.684-3.406,8.09-5.535,11.07-8.09
		C1636.65,1174.211,1649.85,1152.07,1663.475,1130.355z"/>
	<path fill="#DCAA27" d="M2150.142,1177.617c-37.469,8.941-75.789,16.605-113.684,24.695c-7.664,1.703-15.754,2.98-23.418,4.258
		c-4.684,0.852-7.238,2.555-9.367,7.238c-22.992,63.016-48.965,124.754-71.105,187.77c-13.199,36.617-26.398,73.66-43.855,109
		c-0.426,0.852-0.852,1.703-1.277,2.555c-4.258,7.664-4.684,8.09-9.793,5.961c-7.664-2.98-9.793-5.961-7.664-13.199
		c2.555-9.367,5.961-18.309,9.367-27.25c19.16-49.816,38.32-99.633,57.48-149.023c14.477-37.469,22.566-76.641,29.805-115.813
		c1.277-7.238,0.852-7.238-6.387-9.367c-14.051-4.258-26.398-11.496-36.617-22.566c-9.367-10.219-13.625-22.566-14.051-35.766
		c-1.277-26.824,5.535-51.094,25.121-70.68c13.625-13.625,29.805-13.199,43.43,0.426c5.109,5.535,5.109,5.535,10.645,0.852
		c27.676-25.547,53.223-53.223,76.641-82.602c3.406-3.832,5.535-8.941,7.664-13.625c14.051-35.34,27.676-70.68,43.43-105.168
		c3.832-8.941,7.664-18.309,13.625-26.398c5.109-7.238,7.238-8.516,12.348-6.813c5.961,2.129,8.516,6.813,8.516,16.18
		c-2.129,14.477-7.664,30.656-13.625,45.984c-11.922,29.379-28.102,56.203-46.836,81.324c-5.535,7.238-8.09,15.754-11.07,24.27
		c-17.883,47.262-35.34,94.949-52.797,142.637c-3.832,9.793-7.664,19.586-11.07,29.379s-2.98,10.219,7.238,8.516
		c8.516-1.277,16.605-2.555,24.695-4.258c51.52-10.645,103.039-21.715,154.133-34.488c15.754-3.832,31.508-8.09,46.836-12.348
		c3.832-0.852,7.238-0.426,10.219,1.703s2.555,5.109-0.852,6.813c-1.703,0.852-3.406,1.703-5.535,2.129
		C2219.118,1161.012,2184.63,1169.527,2150.142,1177.617z M1976.423,1118.434c-0.426-6.387-1.703-7.238-7.238-3.406
		c-11.922,8.941-24.695,17.457-38.32,23.844c-2.555,0.852-3.406,2.555-3.832,5.109c-4.258,24.27,12.348,46.41,37.043,49.391
		c3.832,0.426,5.535-0.852,6.387-5.109c2.555-18.734,5.109-37.895,5.961-56.203
		C1976.423,1126.949,1976.423,1122.691,1976.423,1118.434z M1931.29,1121.414c14.902-7.664,26.824-17.457,38.746-28.102
		c3.406-2.98,2.555-7.238-0.426-13.625c-2.555-4.258-5.535-4.258-9.367-2.98c-2.129,0.852-4.258,1.277-6.387,2.555
		C1940.231,1089.906,1933.845,1104.383,1931.29,1121.414z M2041.142,1063.934c3.406-8.516,6.387-17.031,10.219-27.676
		c-5.109,3.406-7.664,6.387-10.219,9.367c-12.773,14.477-25.547,28.527-40.023,40.875c-8.516,8.09-12.773,15.328-11.07,28.102
		c2.98,22.141-0.852,44.281-2.98,66.848c-0.426,3.832-3.832,10.219,0.426,11.496c5.961,1.703,5.961-5.535,7.664-9.367
		C2010.485,1143.555,2025.813,1103.957,2041.142,1063.934z"/>
	<path fill="#DCAA27" d="M2303.428,1123.117c-7.664,12.348-15.754,23.844-23.418,36.617c-17.032,28.527-29.806,58.758-33.212,91.969
		c-0.852,8.941-0.852,17.883,1.277,26.824c1.703,7.238,3.832,8.941,11.496,8.516c10.219-0.426,17.883-5.961,25.974-11.496
		c14.051-9.367,24.695-22.566,36.617-34.488c20.863-22.141,43.004-43.004,68.977-58.758c17.883-11.496,37.469-19.586,56.203-28.527
		c9.367-4.684,19.16-8.941,28.953-13.199c2.555-1.277,5.109-2.555,8.516-2.129c1.703,0,3.406,0.852,3.406,2.555
		c0.426,2.129-1.277,2.555-2.98,2.98c-18.734,6.813-35.766,16.18-53.648,24.695c-31.508,15.328-57.48,36.617-81.324,61.738
		c-19.586,20.438-38.746,41.301-60.461,59.609c-2.555,2.129-5.109,4.684-7.664,6.387c-15.329,9.793-28.528,8.09-40.45-5.961
		c-5.961-7.664-9.793-16.605-11.922-25.547c-2.555-11.496-2.98-22.992-1.277-34.488c4.258-44.281,24.695-81.324,50.669-116.238
		c2.129-2.129,4.258-4.258,6.387-6.387c5.535-5.109,10.219-5.109,15.754-0.426C2306.408,1111.621,2307.26,1116.73,2303.428,1123.117
		z M2307.686,1073.727c-1.277-3.832,0.852-6.387,4.684-5.961c7.238,0.852,14.477,7.238,14.477,13.625
		c0.426,3.832-2.129,6.387-5.961,5.109C2314.924,1084.371,2309.814,1080.113,2307.686,1073.727z"/>
	<path fill="#DCAA27" d="M2529.09,1185.707c-5.109,5.109-9.793,9.793-14.477,14.051c-2.98,3.406-6.813,6.387-11.07,8.516
		c-11.07,5.109-24.695-1.703-24.695-13.625c-0.852-35.34,13.199-64.293,43.855-83.453c12.773-8.09,25.547-6.387,38.32,0.852
		c3.406,2.129,5.961,4.684,10.645,2.98c2.555-0.852,5.109,0.852,7.664,2.129c8.941,4.258,9.793,7.238,5.109,16.18
		c-6.387,11.07-13.625,21.715-18.309,33.637c-5.961,14.477-8.941,28.953-8.516,44.281c0,6.813,1.277,13.199,3.832,19.16
		s6.813,8.516,13.199,8.941c12.773,0,23.844-4.684,34.914-10.219c43.004-20.863,173.719-110.703,188.195-94.523
		c0.426,0.426,0.426,1.277,0.852,2.98c-52.797,6.387-144.766,86.859-193.73,107.723c-24.27,10.219-53.223,4.258-67.699-22.992
		c-4.258-8.09-5.535-17.031-6.387-25.973C2530.367,1193.371,2530.793,1189.965,2529.09,1185.707z M2553.359,1130.355
		c2.129-3.406,0.426-5.535-1.277-8.09c-1.703-2.98-4.684-2.555-6.813-1.277c-3.406,2.129-7.238,3.832-10.219,6.387
		c-16.18,13.625-27.25,30.23-34.914,49.816c-2.555,5.961-4.258,12.773-4.258,22.141c4.684-3.406,8.09-5.535,11.07-8.09
		C2526.535,1174.211,2539.734,1152.07,2553.359,1130.355z"/>
	<path fill="#DCAA27" d="M3124.33,1149.09c-40.875,39.598-78.77,82.176-111.555,129.438c-0.852,1.277-1.703,2.555-2.129,4.258
		c-0.426,0.426,0,0.852,0,2.129c5.961-2.98,11.496-6.387,17.457-9.367c22.992-12.773,48.539-20.012,74.086-27.25
		c39.172-11.07,77.918-24.27,112.832-45.984c19.586-11.496,37.469-25.121,54.5-39.172c8.941-7.238,17.883-14.902,26.398-22.566
		c1.703-1.277,3.406-2.98,5.535-3.832c2.555-1.703,5.109-0.852,7.238,1.703c1.277,2.129-0.426,3.832-1.703,5.109
		c-9.367,9.367-19.586,18.309-30.23,26.824c-15.328,12.348-29.805,25.121-46.41,35.34c-28.527,18.734-60.035,31.508-91.969,42.578
		c-27.25,9.367-55.352,16.18-81.75,27.676c-29.805,13.199-55.777,31.934-77.918,56.203c-4.684,5.109-8.09,11.922-11.922,17.883
		c-2.555,3.832-4.684,7.238-7.238,10.645c-3.832,5.535-7.238,5.961-12.348,2.555c-3.832-2.129-4.684-4.684-2.555-8.941
		c3.406-6.813,8.941-13.199,12.773-20.012c20.863-33.637,42.578-66.422,66.848-97.93c26.398-34.914,57.055-65.996,88.137-97.504
		c1.703-1.703,9.36-9.252,6.122-6.36c11.918-10.643,14.742-12.8,21.128-18.761c18.734-16.605,37.895-33.211,57.906-48.113
		c1.703-1.277,4.258-2.129,4.684-4.684c-0.852-1.277-1.703-1.277-2.555-0.852c-27.676,8.09-56.203,8.516-84.305,8.941
		c-14.902,0-29.805,0.426-44.281,3.406c-15.754,3.406-28.102,11.496-38.746,22.992c-2.555,2.555-5.109,5.535-5.961,9.793
		c-0.426,4.684-3.406,5.109-6.813,3.832c-5.535-1.703-7.664-5.109-5.961-9.367c2.555-5.961,6.813-11.07,11.496-15.754
		c12.348-11.922,26.824-18.734,43.43-21.715c15.754-2.555,31.934-2.129,47.688-2.555c34.914-0.852,69.402-7.238,103.465-15.754
		c2.129-0.426,4.258-1.277,6.387-1.277c3.832-0.426,7.238,0.852,9.367,4.258c3.832,4.684,3.406,6.387-1.277,10.219
		c-15.754,11.922-31.508,23.844-46.836,36.191"/>
	<path fill="#DCAA27" d="M3346.162,1185.707c-5.109,5.109-9.793,9.793-14.477,14.051c-2.98,3.406-6.813,6.387-11.07,8.516
		c-11.07,5.109-24.695-1.703-24.695-13.625c-0.852-35.34,13.199-64.293,43.855-83.453c12.773-8.09,25.547-6.387,38.32,0.852
		c3.406,2.129,5.961,4.684,10.645,2.98c2.555-0.852,5.109,0.852,7.664,2.129c8.941,4.258,9.793,7.238,5.109,16.18
		c-6.387,11.07-13.625,21.715-18.309,33.637c-5.961,14.477-8.941,28.953-8.516,44.281c0,6.813,1.277,13.199,3.832,19.16
		s6.813,8.516,13.199,8.941c12.773,0,23.844-4.684,34.914-10.219c43.004-20.863,173.719-110.703,188.195-94.523
		c0.426,0.426,0.426,1.277,0.852,2.98c-52.797,6.387-144.766,86.859-193.73,107.723c-24.27,10.219-53.223,4.258-67.699-22.992
		c-4.258-8.09-5.535-17.031-6.387-25.973C3347.439,1193.371,3347.865,1189.965,3346.162,1185.707z M3370.432,1130.355
		c2.129-3.406,0.426-5.535-1.277-8.09c-1.703-2.98-4.684-2.555-6.813-1.277c-3.406,2.129-7.238,3.832-10.219,6.387
		c-16.18,13.625-27.25,30.23-34.914,49.816c-2.555,5.961-4.258,12.773-4.258,22.141c4.684-3.406,8.09-5.535,11.07-8.09
		C3343.607,1174.211,3356.807,1152.07,3370.432,1130.355z"/>
	<path fill="#DCAA27" d="M3966.099,1149.09c-22.141,17.883-43.43,36.617-68.125,50.668c-16.18,9.367-33.211,16.605-49.816,24.27
		c-23.844,11.07-48.539,20.438-74.086,26.398c-34.914,8.09-70.254,9.793-106.02,3.832c-19.16-2.98-36.191-11.922-52.797-22.141
		c-0.852-0.426-1.703-0.852-2.129-1.277c-6.387-3.832-8.941-3.406-11.922,2.555c-6.387,11.496-12.773,22.992-18.734,34.488
		c-18.734,37.043-40.449,71.957-65.57,104.316c-9.367,11.496-19.16,22.992-31.934,30.656c-8.941,5.109-19.16,6.813-28.953,6.813
		c-1.277,0-2.555,0-3.832-0.426c-2.555-0.852-6.387-2.129-6.387-5.535c0-3.832,4.258-2.129,6.387-2.98
		c9.367-2.98,17.457-8.941,24.27-15.754c16.605-15.754,30.23-34.488,42.578-53.223c20.012-29.805,37.043-61.313,53.648-93.246
		c0.852-1.277,1.703-2.98,0.852-5.535c-4.258-0.426-8.941-1.277-13.625-1.703c-5.961-0.852-11.922-2.555-17.457-5.961
		c-10.219-6.387-10.219-18.734,0.426-25.121c6.387-3.832,14.051-4.258,21.289-2.98c6.387,0.852,12.348,2.555,18.309,4.684
		c7.238,2.98,7.238,2.98,11.07-4.258c3.406-7.664,7.238-14.902,10.645-22.566c15.754-34.063,31.934-67.699,47.262-102.188
		c16.18-36.617,32.359-73.234,50.242-109c25.547-52.797,54.5-103.465,92.395-149.023c11.496-13.625,23.844-26.824,40.023-35.766
		c5.109-2.555,10.219-4.684,16.18-3.832c3.832,0.852,6.813,1.703,8.941,5.535c-22.992,7.664-36.191,26.398-49.816,44.281
		c-28.527,37.043-52.371,77.066-73.66,118.793c-24.695,47.688-45.984,97.078-67.699,145.617
		c-17.031,38.32-34.914,75.789-52.371,113.684c-1.703,2.98-3.406,5.535-3.406,9.793c11.496-2.555,21.715-7.664,31.508-12.348
		c48.539-23.844,91.969-55.352,132.418-90.691c27.25-23.844,52.371-50.242,79.195-74.938c3.832-3.832,7.664-7.238,11.922-10.219
		c5.961-3.832,11.922-3.406,17.883,0c2.555,1.277,3.406,3.832,0.426,6.387c-25.547,20.012-46.836,45.133-71.105,66.848
		c-27.676,25.121-56.629,49.391-87.711,70.68c-21.289,14.477-43.43,28.527-66.422,40.449c-8.09,3.832-16.18,7.238-24.695,10.219
		c-3.832,1.277-7.664,2.98-11.922,4.684c2.129,3.832,5.535,5.109,8.516,6.813c14.477,8.941,29.805,13.625,46.836,15.754
		c25.973,2.98,51.945,0.426,77.492-4.684c40.023-7.664,77.918-22.141,114.109-40.449c20.438-10.219,38.32-23.844,55.352-38.32
		c12.348-10.645,25.121-20.863,39.172-29.379c2.98-1.703,5.961-3.406,9.793-1.703c4.258,1.277,5.109,3.832,2.129,6.813
		C3973.763,1142.703,3969.931,1146.109,3966.099,1149.09z M3579.915,1210.402c-3.832-2.555-8.516-3.832-13.199-5.109
		c-7.238-1.703-14.902,1.703-17.031,7.238c-2.129,5.109-0.426,8.09,4.684,9.367c2.555,0.426,5.109,0.426,7.664,0.426
		c5.109,0.426,10.645,0.426,15.754-0.426c3.832-0.852,5.535-3.406,6.387-6.813
		C3584.599,1212.105,3581.618,1211.68,3579.915,1210.402z"/>
	<path fill="#DCAA27" d="M4009.527,1174.211c0,0,16.605,2.555,49.816-3.832c8.09-1.703,56.629-16.605,85.582-33.637
		c3.406-2.129,6.387,0,7.664,0.426c-58.332,36.191-122.199,53.223-146.895,43.43c-2.555-0.426-3.832,0.426-5.535,2.129
		c-5.109,5.109-11.07,9.367-16.605,13.625c-1.277,0.852-2.129,1.703-3.406,2.129c-11.07,6.813-22.992,0-23.418-13.199
		c0-8.09,2.555-15.328,6.387-22.141c2.129-3.832,2.129-6.387-0.426-10.219c-6.813-10.645-9.793-22.566-9.367-35.34
		c0.426-8.09,3.832-15.328,8.941-21.715c9.793-12.773,22.992-20.438,39.172-22.566c19.16-2.555,34.488,9.793,36.617,28.953
		c1.277,12.348-1.277,23.844-5.961,34.914c-5.109,12.348-11.496,23.418-20.863,32.785c-0.426,0.852-0.852,1.277-1.277,2.129
		C4009.953,1172.082,4009.953,1172.508,4009.527,1174.211z M4019.32,1122.266c6.387-30.656-14.477-33.211-14.477-33.211
		c-32.359-2.129-51.945,40.023-35.34,62.164c2.98-4.258,5.961-8.09,8.516-11.496c3.406-4.684,7.238-8.516,12.348-11.922
		c4.684-2.98,9.793-1.703,13.625,3.832c2.98,4.258,2.555,5.109-2.98,9.793s-11.07,9.793-15.754,15.754
		c-3.406,5.109-5.535,4.258,5.535,9.793c4.258,2.129,4.258,2.129,5.535,1.703c0.852-0.426,1.277-1.703,2.129-2.555
		C4009.527,1153.773,4015.914,1138.445,4019.32,1122.266z M3986.961,1175.063c-2.555-1.277-4.684-2.555-6.813-3.832
		c-2.129-1.703-3.406-1.277-4.684,0.852c-2.98,5.109-5.109,10.645-6.387,16.18c-0.426,1.277-0.426,2.129,0.426,2.98
		c7.664-2.129,12.773-7.238,17.883-12.773C3988.664,1177.191,3988.238,1175.914,3986.961,1175.063z"/>
	<path fill="#DCAA27" d="M4470.647,1139.297c-102.188,8.09-142.211,45.559-212.891,109.852
		c-14.051,12.348-27.676,24.695-43.855,34.063c-11.07,5.961-22.566,9.367-34.914,7.664c-13.199-1.703-22.992-8.09-30.23-19.16
		c-34.063-51.094-2.98-149.875,62.59-190.75c8.941-5.109,17.883-6.813,27.676-4.258c7.664,2.555,12.773,7.238,14.051,15.328
		c2.555,18.734-4.258,34.914-16.18,48.965c-2.555,2.98-5.535,2.98-8.941,1.703c-5.535-1.703-6.813-4.258-2.98-9.367
		c5.535-8.09,9.367-17.031,11.922-26.824c1.703-5.535,1.703-11.07,0.426-16.605c-0.426-3.832-2.555-4.684-6.387-3.832
		c-39.598,12.773-102.188,119.645-72.809,183.938c7.238,15.754,17.031,19.586,33.637,14.902
		c14.477-3.406,25.973-12.348,37.043-22.141c95.801-82.176,111.129-107.723,224.813-127.734
		C4459.151,1134.613,4464.687,1133.336,4470.647,1139.297z"/>
	<path fill="#DCAA27" d="M4751.666,1141.426c0.852,3.406-2.129,4.258-4.258,5.535c-34.488,19.16-63.867,44.707-91.543,72.809
		c-19.586,20.438-39.172,40.023-58.758,60.035c-7.664,7.664-15.754,14.902-24.695,21.289c-7.238,5.961-15.754,9.793-25.547,9.367
		c-12.348,0-18.734-5.109-21.715-17.031c-3.832-14.902-0.426-28.953,2.98-43.004c6.813-26.398,19.16-50.242,31.934-74.512
		c10.219-20.438,22.992-39.598,32.359-60.887c2.555-5.535,5.109-11.496,7.238-17.031c1.277-2.555,2.555-5.109,0.426-8.09
		c-10.645,4.258-19.586,11.922-28.527,19.16c-20.863,17.457-40.023,37.043-60.035,55.777c-3.832,3.832-8.09,7.238-12.348,11.07
		c-4.258,2.98-8.516,5.109-13.625,5.535c-13.625,1.277-20.863-5.109-20.012-19.16c0.852-23.844,8.09-46.41,17.031-68.551
		c20.012-50.668,43.43-99.633,68.125-148.172c29.379-56.629,62.164-111.555,97.504-165.203c9.793-14.477,20.012-28.953,30.23-43.855
		c5.109-7.238,10.645-8.941,18.309-6.387c6.387,2.129,7.664,4.258,4.684,10.219c-6.387,12.348-13.199,24.695-20.863,36.191
		c-31.508,47.688-61.313,97.078-88.988,147.32c-14.051,25.547-28.102,51.094-40.449,77.918
		c-20.438,41.301-38.32,83.879-54.074,127.309c-4.258,11.496-7.238,23.844-7.664,36.617c15.328-10.645,28.102-23.844,41.301-36.191
		c17.457-16.18,34.914-33.211,54.926-46.41c6.387-3.832,12.773-7.238,20.438-7.664c13.625,0,19.586,6.813,16.605,20.012
		c-2.129,10.645-5.961,21.715-11.07,31.508c-11.496,22.566-23.418,45.133-34.914,67.699c-12.348,23.418-23.418,47.262-31.082,72.383
		c-1.703,5.535-2.98,11.496-3.832,17.457c-0.426,2.98-0.426,5.961,0,8.941c1.277,9.793,5.961,12.348,14.902,6.813
		c16.18-8.941,29.379-22.141,41.727-35.766c23.844-25.973,46.836-52.797,73.234-76.215c20.012-17.883,42.152-32.359,65.996-44.707
		C4744.854,1140.148,4744.854,1140.148,4751.666,1141.426z"/>
	<path fill="#DCAA27" d="M4786.583,1185.707c-5.109,5.109-9.793,9.793-14.477,14.051c-2.98,3.406-6.813,6.387-11.07,8.516
		c-11.07,5.109-24.695-1.703-24.695-13.625c-0.852-35.34,13.199-64.293,43.855-83.453c12.773-8.09,25.547-6.387,38.32,0.852
		c3.406,2.129,5.961,4.684,10.645,2.98c2.555-0.852,5.109,0.852,7.664,2.129c8.941,4.258,9.793,7.238,5.109,16.18
		c-6.387,11.07-13.625,21.715-18.309,33.637c-5.961,14.477-8.941,28.953-8.516,44.281c0,6.813,1.277,13.199,3.832,19.16
		s6.813,8.516,13.199,8.941c12.773,0,23.844-4.684,34.914-10.219c43.004-20.863,173.719-110.703,188.195-94.523
		c0.426,0.426,0.426,1.277,0.852,2.98c-52.797,6.387-144.766,86.859-193.73,107.723c-24.27,10.219-53.223,4.258-67.699-22.992
		c-4.258-8.09-5.535-17.031-6.387-25.973C4787.86,1193.371,4788.286,1189.965,4786.583,1185.707z M4810.853,1130.355
		c2.129-3.406,0.426-5.535-1.277-8.09c-1.703-2.98-4.684-2.555-6.813-1.277c-3.406,2.129-7.238,3.832-10.219,6.387
		c-16.18,13.625-27.25,30.23-34.914,49.816c-2.555,5.961-4.258,12.773-4.258,22.141c4.684-3.406,8.09-5.535,11.07-8.09
		C4784.028,1174.211,4797.228,1152.07,4810.853,1130.355z"/>
	<path fill="#DCAA27" d="M5344.355,1133.336c0.852,3.406-2.129,3.832-3.832,5.109c-11.922,6.813-23.844,13.625-36.191,20.438
		c-23.844,14.051-46.836,28.953-71.531,42.152c-12.773,7.238-26.398,13.199-40.449,18.309c-25.121,8.941-40.023-8.516-41.727-28.102
		c-2.129-22.992,2.98-44.707,14.902-65.145c6.387-10.645,13.625-21.289,19.16-34.914c-14.051,4.684-22.992,12.348-32.359,20.438
		c-22.566,19.16-42.152,41.727-63.016,62.59c-2.555,2.555-5.535,4.684-8.516,6.813c-7.238,5.535-12.773,4.684-18.734-2.129
		c-5.109-5.961-8.09-12.773-8.516-20.863c-0.852-25.973,10.219-46.41,28.102-63.867c3.406-3.406,6.813-3.406,11.07-0.852
		c9.367,5.961,11.496,14.477,4.258,23.844c-7.664,11.07-14.902,22.566-20.438,34.914c-2.129,4.684-4.258,9.367-4.684,15.328
		c6.813-1.703,10.645-5.535,14.477-9.793c21.289-21.715,43.004-43.43,65.996-63.867c6.387-5.961,12.773-11.496,20.438-15.754
		c6.813-3.832,13.625-6.387,20.863-0.426c7.238,6.387,11.07,14.051,8.516,23.844c-2.129,7.238-4.684,14.051-8.09,20.863
		c-6.813,13.199-13.625,26.398-20.012,40.023c-4.684,9.367-8.09,19.16-9.793,29.805c0,0.852,0,2.129,0,2.98
		c-1.277,13.625,1.703,16.605,15.754,14.477c13.199-2.129,25.547-8.516,37.469-14.051c23.844-11.496,45.984-25.121,68.125-38.746
		c15.754-9.367,32.359-17.883,48.965-25.973c1.277-0.426,2.98-1.277,4.684-1.277
		C5341.801,1129.504,5343.504,1131.207,5344.355,1133.336z"/>
	<path fill="#DCAA27" d="M5379.694,1185.707c-5.109,5.109-9.793,9.793-14.477,14.051c-2.98,3.406-6.813,6.387-11.07,8.516
		c-11.07,5.109-24.695-1.703-24.695-13.625c-0.852-35.34,13.199-64.293,43.855-83.453c12.773-8.09,25.547-6.387,38.32,0.852
		c3.406,2.129,5.961,4.684,10.645,2.98c2.555-0.852,5.109,0.852,7.664,2.129c8.941,4.258,9.793,7.238,5.109,16.18
		c-6.387,11.07-13.625,21.715-18.309,33.637c-5.961,14.477-8.941,28.953-8.516,44.281c0,6.813,1.277,13.199,3.832,19.16
		s6.813,8.516,13.199,8.941c12.773,0,23.844-4.684,34.914-10.219c43.004-20.863,173.719-110.703,188.195-94.523
		c0.426,0.426,0.426,1.277,0.852,2.98c-52.797,6.387-144.766,86.859-193.73,107.723c-24.27,10.219-53.223,4.258-67.699-22.992
		c-4.258-8.09-5.535-17.031-6.387-25.973C5380.972,1193.371,5381.397,1189.965,5379.694,1185.707z M5403.964,1130.355
		c2.129-3.406,0.426-5.535-1.277-8.09c-1.703-2.98-4.684-2.555-6.813-1.277c-3.406,2.129-7.238,3.832-10.219,6.387
		c-16.18,13.625-27.25,30.23-34.914,49.816c-2.555,5.961-4.258,12.773-4.258,22.141c4.684-3.406,8.09-5.535,11.07-8.09
		C5377.14,1174.211,5390.339,1152.07,5403.964,1130.355z"/>
	<path fill="#DCAA27" d="M5932.357,1369.219c-5.961-8.516-8.941-17.883-11.496-27.25c-5.109-20.012-5.535-40.449-3.406-60.887
		c2.98-29.805,7.664-59.609,15.328-88.563c0.852-4.684,2.555-8.941,1.703-14.902c-4.258,4.684-6.387,9.367-8.941,14.051
		c-13.199,22.992-27.25,45.559-45.984,65.145c-5.109,5.109-10.645,9.793-16.605,14.051c-10.219,7.238-21.289,8.516-32.785,5.961
		c-14.902-3.406-20.438-14.902-22.992-28.102c-2.129-10.219-1.703-20.438-0.426-30.656c5.535-32.785,16.18-63.867,36.617-90.691
		c4.258-5.961,9.367-10.219,17.457-7.664c7.238,2.129,8.09,3.832,4.258,10.219c-5.109,8.941-10.219,17.883-14.477,26.824
		c-11.07,23.418-18.309,47.688-21.715,72.809c-1.277,11.07-0.852,21.715,2.98,32.359c3.406,7.664,5.109,8.516,12.773,5.535
		c11.07-4.258,19.586-11.922,27.677-20.438c20.862-22.141,37.894-46.836,52.796-73.66c10.645-18.309,21.289-37.043,28.954-57.055
		c2.128-5.961,5.108-6.813,10.644-5.535c5.109,1.277,6.387,3.406,5.109,10.219c-3.406,17.883-7.238,35.766-11.496,54.074
		c-7.664,34.063-14.051,68.125-16.605,103.039c-2.129,28.527-0.426,57.055,8.516,84.305c4.258,13.625,8.516,14.902,18.734,4.684
		c8.09-8.09,14.051-17.457,19.16-27.25c20.012-38.746,33.637-79.621,45.559-120.922c8.09-27.25,15.755-54.5,21.289-82.602
		c1.277-5.535,1.703-10.645,1.277-16.605c-0.852-10.219,0-20.438,3.406-30.23c2.98-7.664,5.535-8.941,12.348-7.238
		c5.961,1.277,7.238,2.555,5.961,11.07c-1.276,10.219-0.852,20.012,0,30.23s2.98,19.586,7.664,28.527
		c8.09,15.328,20.863,22.566,37.895,22.141c15.754-0.426,31.082-5.109,45.559-12.348c12.773-6.387,25.547-13.199,37.895-21.289
		c1.703-0.852,3.406-1.703,5.109-2.129c2.98-0.852,5.961-0.852,7.238,1.703s-1.277,4.258-2.98,5.535
		c-21.289,17.883-44.28,31.934-72.809,36.191c-13.199,1.703-25.972,1.703-39.172-1.703c-11.07-2.555-20.863-8.09-28.953-16.18
		c-1.703-2.129-3.406-4.684-6.813-8.516c-4.684,18.734-8.941,34.914-12.773,50.668c-5.961,25.121-15.328,48.965-24.27,73.234
		c-9.366,24.695-20.012,48.539-33.211,71.531c-4.684,8.09-9.793,15.754-16.18,22.566
		C5967.698,1387.953,5944.279,1385.824,5932.357,1369.219z"/>
	<path fill="#DCAA27" d="M6729.846,1138.445c1.277,2.129-0.426,3.832-1.703,5.109c-9.367,9.367-19.586,18.309-30.23,26.824
		c-15.328,12.348-29.805,25.121-46.41,35.34c-28.527,18.734-60.035,31.508-91.969,42.578c-27.25,9.367-55.352,16.18-81.75,27.676
		c-29.805,13.199-55.777,31.934-77.918,56.203c-4.684,5.109-8.09,11.922-11.922,17.883c-2.555,3.832-4.684,7.238-7.238,10.645
		c-3.832,5.535-7.238,5.961-12.348,2.555c-3.832-2.129-4.684-4.684-2.555-8.941c3.406-6.813,8.941-13.199,12.773-20.012
		c20.863-33.637,42.578-66.422,66.848-97.93c26.399-34.914,57.055-65.996,88.137-97.504c1.703-1.703,4.258-2.98,5.109-7.238
		c-6.387-0.852-12.347,0.426-17.883,2.129c-2.555,0.852-5.109,1.703-7.664,2.129c-2.98,0.426-6.387-0.426-7.238-3.406
		c-1.703-4.258,2.555-4.684,5.109-5.961c8.941-3.832,18.734-4.258,28.102-3.832c8.941,0.426,15.328-2.98,21.715-8.941
		c18.734-16.605,37.895-33.211,57.906-48.113c1.703-1.277,4.258-2.129,4.684-4.684c-0.852-1.277-1.702-1.277-2.555-0.852
		c-27.676,8.09-56.203,8.516-84.305,8.941c-14.902,0-29.805,0.426-44.281,3.406c-15.754,3.406-28.102,11.496-38.746,22.992
		c-2.555,2.555-5.109,5.535-5.961,9.793c-0.426,4.684-3.406,5.109-6.813,3.832c-5.535-1.703-7.664-5.109-5.961-9.367
		c2.555-5.961,6.813-11.07,11.496-15.754c12.348-11.922,26.824-18.734,43.43-21.715c15.754-2.555,31.934-2.129,47.688-2.555
		c34.914-0.852,69.402-7.238,103.465-15.754c2.129-0.426,4.258-1.277,6.387-1.277c3.832-0.426,7.238,0.852,9.367,4.258
		c3.832,4.684,3.406,6.387-1.277,10.219c-15.754,11.922-31.508,23.844-46.836,36.191c-11.07,8.941-21.715,18.309-33.211,28.102
		c7.664,5.535,17.457,1.277,23.418,8.09c-0.852,3.406-3.832,2.129-5.535,2.129c-9.367-0.426-19.16-3.406-27.676,0
		c-8.089,3.406-13.625,11.496-20.012,17.457c-40.875,39.598-78.77,82.176-111.555,129.438c-0.852,1.277-1.703,2.555-2.129,4.258
		c-0.426,0.426,0,0.852,0,2.129c5.961-2.98,11.496-6.387,17.457-9.367c22.992-12.773,48.539-20.012,74.086-27.25
		c39.172-11.07,77.918-24.27,112.832-45.984c19.586-11.496,37.469-25.121,54.5-39.172c8.941-7.238,17.883-14.902,26.399-22.566
		c1.702-1.277,3.405-2.98,5.534-3.832C6725.162,1135.039,6727.717,1135.891,6729.846,1138.445z"/>
	<path fill="#DCAA27" d="M6877.592,1104.809c-0.426,2.98-2.98,5.535-4.684,8.09c-27.676,46.836-55.352,93.246-77.066,142.637
		c-17.883,40.875-36.617,81.324-54.926,121.773c-3.832,7.238-7.664,14.477-11.496,22.141c-4.684,8.941-4.684,8.941,5.11,11.07
		c16.604,4.258,33.636,8.09,50.668,12.348c2.554,0.426,5.108,1.277,7.663,2.129c1.703,0.426,3.406,0.852,3.406,2.555
		c0,2.129-1.703,3.832-3.832,4.258c-2.129,0.852-4.258-0.426-6.813-0.852c-17.883-4.258-35.766-8.09-53.648-12.348
		c-11.922-2.555-11.496-2.555-17.031,7.664c-17.031,33.211-35.34,65.996-56.629,97.078c-18.734,27.676-38.746,54.074-62.59,77.492
		c-45.559,45.133-100.91,69.402-164.776,70.68c-48.54,1.277-89.841-17.031-120.923-54.5
		c-30.656-37.895-34.063-92.395-10.219-134.973c15.754-27.676,38.32-48.113,66.422-63.016
		c46.41-24.695,96.227-34.914,148.172-37.043c34.063-1.277,68.125,2.129,101.762,5.961c25.547,3.406,51.094,6.813,76.215,12.773
		c8.09,1.703,8.516,1.277,11.922-5.961c10.645-22.992,21.289-45.984,31.934-69.402c10.645-22.992,19.586-47.262,30.656-70.68
		c16.605-35.766,34.914-70.68,55.777-104.316c2.129-3.406,3.832-6.813,5.961-10.219c-0.852-0.426-1.277-0.852-1.703-1.703
		c-11.07,9.367-20.863,20.012-30.656,30.23c-18.309,19.16-35.766,38.746-53.648,58.332c-5.535,5.961-11.496,11.07-17.883,15.754
		c-5.535,4.258-11.496,5.535-18.309,1.703c-6.387-3.832-6.813-9.793-5.961-16.605c2.129-18.734,8.09-36.617,16.606-53.223
		c6.812-14.477,15.327-27.676,25.12-40.449c2.13-2.98,4.684-5.535,7.238-7.664c4.684-3.406,11.922-2.129,15.328,2.555
		c2.129,2.555,0,4.684-1.277,6.813c-5.534,8.941-11.07,17.457-16.605,25.973c-11.922,18.734-22.566,37.895-29.804,58.758
		c-2.13,5.109-3.833,10.645-3.407,16.605c4.684,0.852,6.813-2.129,9.367-4.258c13.199-10.645,24.27-23.418,35.34-36.191
		c27.676-30.23,56.203-59.184,86.008-87.285c5.109-4.258,9.367-8.941,14.477-13.625
		C6864.818,1090.758,6878.443,1101.402,6877.592,1104.809z M6689.823,1409.242c-18.31-4.258-36.618-7.238-55.353-9.793
		c-36.19-5.109-71.957-8.941-108.574-8.09c-45.984,0.426-91.117,8.941-133.27,28.527c-24.27,11.07-46.41,25.973-63.441,47.262
		c-32.359,40.875-38.746,85.156-14.902,131.141c22.141,43.43,60.035,63.441,104.742,65.57c36.191-0.426,66.848-8.516,95.801-22.566
		c36.617-17.457,64.719-43.855,88.988-75.363c34.914-46.41,64.719-96.227,89.841-149.023
		C6696.209,1410.945,6696.209,1410.945,6689.823,1409.242z"/>
	<path fill="#DCAA27" d="M7239.078,1139.297c-102.188,8.09-142.211,45.559-212.891,109.852
		c-14.051,12.348-27.676,24.695-43.855,34.063c-11.07,5.961-22.566,9.367-34.914,7.664c-13.199-1.703-22.992-8.09-30.23-19.16
		c-34.063-51.094-2.98-149.875,62.59-190.75c8.941-5.109,17.883-6.813,27.676-4.258c7.664,2.555,12.773,7.238,14.051,15.328
		c2.555,18.734-4.258,34.914-16.18,48.965c-2.555,2.98-5.535,2.98-8.941,1.703c-5.535-1.703-6.812-4.258-2.98-9.367
		c5.535-8.09,9.367-17.031,11.922-26.824c1.703-5.535,1.703-11.07,0.426-16.605c-0.426-3.832-2.554-4.684-6.386-3.832
		c-39.599,12.773-102.188,119.645-72.81,183.938c7.238,15.754,17.031,19.586,33.637,14.902
		c14.477-3.406,25.973-12.348,37.043-22.141c95.801-82.176,111.13-107.723,224.813-127.734
		C7227.582,1134.613,7233.117,1133.336,7239.078,1139.297z"/>
	<path fill="#DCAA27" d="M7282.938,1123.117c-7.664,12.348-15.754,23.844-23.418,36.617c-17.03,28.527-29.805,58.758-33.211,91.969
		c-0.852,8.941-0.852,17.883,1.277,26.824c1.703,7.238,3.832,8.941,11.496,8.516c10.219-0.426,17.883-5.961,25.973-11.496
		c14.051-9.367,24.695-22.566,36.617-34.488c20.863-22.141,43.004-43.004,68.977-58.758c17.884-11.496,37.469-19.586,56.203-28.527
		c9.367-4.684,19.16-8.941,28.953-13.199c2.555-1.277,5.109-2.555,8.517-2.129c1.702,0,3.405,0.852,3.405,2.555
		c0.426,2.129-1.277,2.555-2.98,2.98c-18.734,6.813-35.766,16.18-53.648,24.695c-31.508,15.328-57.48,36.617-81.324,61.738
		c-19.586,20.438-38.746,41.301-60.461,59.609c-2.555,2.129-5.109,4.684-7.664,6.387c-15.327,9.793-28.527,8.09-40.449-5.961
		c-5.96-7.664-9.793-16.605-11.922-25.547c-2.555-11.496-2.98-22.992-1.277-34.488c4.258-44.281,24.696-81.324,50.668-116.238
		c2.129-2.129,4.258-4.258,6.387-6.387c5.535-5.109,10.219-5.109,15.754-0.426C7285.918,1111.621,7286.77,1116.73,7282.938,1123.117
		z M7287.196,1073.727c-1.278-3.832,0.851-6.387,4.683-5.961c7.238,0.852,14.477,7.238,14.477,13.625
		c0.427,3.832-2.129,6.387-5.961,5.109C7294.434,1084.371,7289.324,1080.113,7287.196,1073.727z"/>
	<path fill="#DCAA27" d="M7626.967,1083.094c-23.418,21.289-41.727,46.41-57.48,73.66c-18.309,31.508-32.359,64.719-39.598,100.91
		c-3.832,20.438-4.258,40.449,1.703,60.461c2.129,6.813,3.832,13.625,9.793,17.883c1.703,1.277,3.406,2.98,1.703,5.109
		c-1.277,2.129-3.406,0.426-5.109-0.426c-8.09-2.98-13.198-9.367-17.457-17.031c-8.941-17.031-11.496-35.34-10.219-54.5
		c1.277-26.398,8.09-51.945,17.883-76.641c0.852-2.555,1.703-4.684,2.555-7.238c0.426-0.852,0-1.277-0.426-3.406
		c-6.813,7.664-12.773,14.902-19.586,20.863c-5.535,4.684-11.496,6.813-18.309,6.387c-13.199-0.426-21.715-7.664-24.27-20.438
		c-1.277-6.813-1.702-13.625-0.426-20.438c3.832-27.25,13.199-51.52,31.934-71.957c5.109-5.535,11.07-7.238,17.883-6.387
		c8.09,1.277,9.793,4.258,5.535,11.496c-5.109,9.367-11.07,18.309-16.18,28.102c-8.09,15.754-13.625,31.934-16.605,49.391
		c-0.852,5.109-0.852,9.793-0.426,14.902c1.277,6.813,2.555,7.664,8.09,3.406c9.368-8.09,16.605-17.457,24.695-26.824
		c11.07-13.199,19.586-28.102,30.656-41.301c16.605-19.16,34.488-37.043,54.5-52.797c6.813-5.109,11.922-4.684,19.16-0.426
		C7630.799,1078.41,7630.373,1080.113,7626.967,1083.094z"/>
</g>
</svg>
